<svg width="512" height="512" xmlns="http://www.w3.org/2000/svg">
 <g>
  <title>Layer 1</title>
  <path id="svg_1" d="m255.5,495.399994c-6.399994,0 -12.800003,-1.700012 -18.399994,-4.899994l-58.5,-34.600006c-8.700012,-4.899994 -4.5,-6.600006 -1.600006,-7.600006c11.699997,-4 14,-5 26.5,-12c1.300003,-0.699982 3,-0.5 4.399994,0.300018l45,26.699982c1.600006,0.900024 3.899994,0.900024 5.399994,0l175.300018,-101.299988c1.600006,-0.899994 2.700012,-2.799988 2.700012,-4.700012v-202.399994c0,-2 -1,-3.800003 -2.700012,-4.800003l-175.300018,-101.099991c-1.600006,-0.900002 -3.800003,-0.900002 -5.399994,0l-175.199997,101.100006c-1.699997,1 -2.799995,2.900009 -2.799995,4.800003v202.300003c0,1.899994 1.099998,3.799988 2.799995,4.700012l48,27.699982c26.100006,13 42,-2.299988 42,-17.699982v-199.700027c0,-2.800003 2.300003,-5.099991 5.100006,-5.099991h22.199997c2.800003,0 5.100006,2.199997 5.100006,5.099991v199.800003c0,34.799988 -18.900009,54.700012 -51.900009,54.700012c-10.099991,0 -18.099991,0 -40.399994,-11l-46.000004,-26.5c-11.399998,-6.600006 -18.399998,-18.800018 -18.399998,-32v-202.300018c0,-13.100006 7,-25.400009 18.399998,-32.000008l175.300007,-101.199986c11.100006,-6.300001 25.800018,-6.300001 36.800018,0l175.399963,101.299999c11.399994,6.600006 18.399994,18.800003 18.399994,32v202.299988c0,13.100006 -7.100006,25.400024 -18.399994,32l-175.299988,101.200012c-5.600006,3.200012 -12,4.899994 -18.5,4.899994z" fill="#8CC84B"/>
  <path id="svg_2" d="m-352.299988,392c-76.700012,0 -92.800018,-35.200012 -92.800018,-64.799988c0,-2.800018 2.300018,-5.100006 5.100006,-5.100006h22.700012c2.5,0 4.600006,1.799988 5,4.299988c3.399994,23.100006 13.600006,34.700012 60,34.700012c36.899994,0 52.700012,-8.399994 52.700012,-28c0,-11.300018 -4.5,-19.700012 -61.900024,-25.300018c-48,-4.699982 -77.600006,-15.299988 -77.600006,-53.699982c0,-35.400009 29.800018,-56.5 79.800018,-56.5c56.200012,0 84,19.5 87.5,61.299988c0.100006,1.400024 -0.399994,2.800018 -1.299988,3.899994c-1,1 -2.300018,1.600006 -3.700012,1.600006h-22.799988c-2.400024,0 -4.400024,-1.699982 -4.900024,-4c-5.5,-24.299988 -18.699982,-32 -54.799988,-32c-40.299988,0 -45,14 -45,24.600006c0,12.799988 5.5,16.5 60,23.700012c53.899994,7.099976 79.5,17.199982 79.5,55.099976c-0.100006,38.300018 -31.900024,60.200012 -87.5,60.200012z" fill="#FFCC00"/>
  <rect transform="rotate(61.13283920288086 -346,63) " id="svg_3" height="92" width="92" y="17" x="-392" stroke-linecap="null" stroke-linejoin="null" fill="#FFCC00"/>
  <text transform="matrix(6.649244458197146,0,0,7.346154207508791,-1811.125237198319,-1480.1923840785125) " xml:space="preserve" text-anchor="middle" font-family="serif" font-size="24" id="svg_4" y="244" x="313" stroke-linecap="null" stroke-linejoin="null" stroke-width="0" fill="#FFCC00">Taxi</text>
 </g>
</svg>